<svg width="128" height="82" viewBox="0 0 128 82" fill="none" xmlns="http://www.w3.org/2000/svg">
<path d="M127.947 3.68144V78.1363C127.947 78.5898 127.858 79.039 127.685 79.458C127.511 79.8771 127.257 80.2578 126.936 80.5785C126.615 80.8992 126.235 81.1536 125.815 81.327C125.396 81.5005 124.947 81.5896 124.494 81.5894H4.27787C3.82433 81.5896 3.3752 81.5005 2.95615 81.327C2.53709 81.1536 2.15634 80.8992 1.83564 80.5785C1.51494 80.2578 1.2606 79.8771 1.08715 79.458C0.913695 79.039 0.824536 78.5898 0.824769 78.1363V3.68144C0.824769 2.76562 1.18858 1.88731 1.83616 1.23973C2.48374 0.59215 3.36205 0.228344 4.27787 0.228344H124.485C124.939 0.22718 125.389 0.315638 125.809 0.488651C126.229 0.661664 126.611 0.915833 126.932 1.2366C127.254 1.55736 127.509 1.93842 127.683 2.35795C127.857 2.77748 127.947 3.22723 127.947 3.68144Z" fill="#4C4C78"/>
</svg>
