<svg width="185" height="124" viewBox="0 0 185 124" fill="none" xmlns="http://www.w3.org/2000/svg">
<path opacity="0.1" d="M107.071 20.3199C95.266 19.9095 84.0226 16.0991 73.2862 11.9293C62.5498 7.7595 51.9156 3.13918 40.3858 0.930249C32.982 -0.490688 24.5056 -0.691333 18.5337 3.27963C12.7879 7.11014 10.931 13.7041 9.93326 19.8274C9.18175 24.4368 8.74033 29.2851 10.7979 33.599C12.2279 36.5941 14.7633 39.1113 16.5181 41.9897C22.6232 51.9709 18.3075 64.2796 11.6935 74.0255C8.59258 78.5966 4.99008 82.9633 2.5951 87.8263C0.200123 92.6892 -0.907075 98.269 1.18876 103.232C3.26453 108.157 8.21318 111.849 13.5741 114.45C24.4618 119.729 37.2867 121.241 49.8015 122.097C77.4961 123.992 105.337 123.171 133.104 122.35C143.381 122.045 153.701 121.737 163.81 120.148C169.425 119.266 175.22 117.865 179.295 114.494C184.469 110.202 185.752 102.933 182.284 97.5521C176.469 88.5249 160.396 86.2813 156.326 76.5937C154.09 71.262 156.386 65.3211 159.639 60.3761C166.614 49.7656 178.304 40.4593 178.919 28.3312C179.342 20.0025 173.722 11.6611 165.032 7.71937C155.925 3.58789 143.293 4.10775 136.577 10.9461C129.655 17.9724 117.496 20.6811 107.071 20.3199Z" fill="#00BAFC"/>
</svg>
