<svg width="160" height="105" viewBox="0 0 160 105" fill="none" xmlns="http://www.w3.org/2000/svg">
<path opacity="0.1" d="M49.8531 5.48188C55.2536 0.676457 63.7278 -0.308656 71.4405 0.0739302C95.6691 1.27714 117.539 12.9747 136.456 26.2062C143.306 30.995 150.048 36.1571 154.493 42.7535C163.549 56.1791 160.858 74.7817 148.276 85.8416C143.993 89.6064 138.803 92.4952 133.475 95.0477C124.001 99.5962 113.778 103.246 103.027 104.289C95.3586 105.028 87.596 104.427 79.9738 103.394C58.6766 100.502 37.7711 94.1143 20.2498 83.1967C12.5648 78.4024 5.3197 72.4455 2.15181 64.6903C-1.01607 56.9351 1.01145 47.1117 8.85908 42.5225C12.1046 40.6243 15.9859 39.7668 19.784 38.9628C25.3768 37.7781 31.0583 36.61 36.1058 34.2017C41.3179 31.714 47.4892 26.9012 46.456 21.3952C45.3507 15.4772 44.4617 10.2873 49.8531 5.48188Z" fill="#00BAFC"/>
</svg>
