<svg width="144" height="94" viewBox="0 0 144 94" fill="none" xmlns="http://www.w3.org/2000/svg">
<path opacity="0.1" d="M44.6649 4.90378C49.496 0.605114 57.0765 -0.276113 63.9759 0.0661273C85.6494 1.14245 105.213 11.6064 122.135 23.4426C128.262 27.7264 134.294 32.3442 138.27 38.2449C146.371 50.2547 143.964 66.8956 132.708 76.7891C128.878 80.157 124.235 82.7411 119.468 85.0244C110.993 89.0932 101.849 92.3586 92.2314 93.291C85.3717 93.9524 78.4277 93.415 71.6093 92.4908C52.558 89.9034 33.8571 84.1894 18.1835 74.4232C11.3089 70.1344 4.82786 64.8057 1.99405 57.8683C-0.839765 50.931 0.973943 42.1435 7.994 38.0383C10.8973 36.3403 14.3693 35.5731 17.7669 34.8539C22.7698 33.7942 27.8522 32.7492 32.3674 30.5949C37.0298 28.3696 42.5503 24.0643 41.6261 19.139C40.6374 13.845 39.8422 9.20245 44.6649 4.90378Z" fill="#00BAFC"/>
</svg>
